<svg xmlns="http://www.w3.org/2000/svg" viewBox="0 0 80 74">
<style>.a{fill:#333}.b{fill:#fff}.c{fill:#d1d1d1}.d{fill:#b2b2b2}</style>
<g>
  <polygon class="b" points="58.11,20.09 39.33,41.08 39.33,1.31"/>
  <polyline class="c" points="58.11,20.09 46,33.49 39.33,20.09"/>
  <path class="d" d="M39.33,1.31l18.77,18.78H39.33C39.33,20.09,39.33,1.43,39.33,1.31z"/>
  <polygon class="b" points="24.76,16.72 38.93,41.06 1.1,28.77"/>
  <polyline class="c" points="24.76,16.72 33.77,32.37 18.96,34.57"/>
  <path class="d" d="M1.1,28.77l23.66-12.05l-5.8,17.85C18.96,34.57,1.22,28.81,1.1,28.77z"/>
  <polygon class="b" points="11.25,47.38 38.78,41.44 15.4,73.61"/>
  <polyline class="c" points="11.25,47.38 28.92,43.65 26.44,58.42"/>
  <path class="d" d="M15.4,73.61l-4.15-26.23l15.19,11.03C26.44,58.42,15.48,73.51,15.4,73.61z"/>
  <polygon class="b" points="36.25,69.71 39.1,41.69 62.47,73.87"/>
  <polyline class="c" points="36.25,69.71 38.16,51.75 51.43,58.67"/>
  <path class="d" d="M62.47,73.87l-26.23-4.16l15.19-11.03C51.43,58.67,62.4,73.77,62.47,73.87z"/>
  <polygon class="b" points="65.2,52.84 39.44,41.47 77.26,29.18"/>
  <polyline class="c" points="65.2,52.84 48.71,45.47 59.4,34.98"/>
  <path class="d" d="M77.26,29.18L65.2,52.84l-5.8-17.85C59.4,34.98,77.14,29.22,77.26,29.18z"/>
  <path class="a" d="M77.49,28.79c-0.13-0.15-0.33-0.21-0.52-0.15l-0.02,0.01L40.49,40.5l17.87-19.98c0,0,0,0,0-0.01
    c0.02-0.02,0.04-0.04,0.05-0.07c0,0,0-0.01,0.01-0.01c0.01-0.02,0.02-0.03,0.03-0.05c0,0,0-0.01,0-0.01
    c0-0.01,0.01-0.02,0.01-0.03c0.01-0.02,0.01-0.04,0.01-0.05c0-0.01,0-0.02,0-0.03c0-0.02,0-0.04,0-0.06c0-0.01,0-0.01,0-0.02
    c0-0.03,0-0.05-0.01-0.08c0-0.01,0-0.01-0.01-0.02c-0.01-0.02-0.01-0.04-0.02-0.06c0-0.01-0.01-0.02-0.01-0.03
    c-0.01-0.02-0.02-0.03-0.03-0.05c0-0.01-0.01-0.02-0.01-0.02c-0.02-0.02-0.03-0.05-0.05-0.07L39.56,1.08
    c-0.14-0.14-0.35-0.18-0.53-0.11c-0.18,0.08-0.3,0.25-0.3,0.45v0.02v38.34L25.26,16.61c0,0,0,0,0-0.01
    c-0.01-0.02-0.03-0.05-0.05-0.07c0,0-0.01-0.01-0.01-0.01c-0.01-0.01-0.03-0.03-0.04-0.04c0,0-0.01,0-0.01-0.01
    c-0.01-0.01-0.02-0.01-0.02-0.02c-0.02-0.01-0.03-0.02-0.05-0.03c-0.01,0-0.02-0.01-0.03-0.01c-0.02-0.01-0.04-0.02-0.06-0.02
    c-0.01,0-0.01,0-0.02-0.01c-0.03-0.01-0.05-0.01-0.08-0.02c-0.01,0-0.01,0-0.02,0c-0.02,0-0.04,0-0.06,0c-0.01,0-0.02,0-0.03,0
    c-0.02,0-0.04,0.01-0.06,0.01c-0.01,0-0.02,0-0.03,0.01c-0.03,0.01-0.05,0.02-0.08,0.03L0.96,28.48
    c-0.17,0.09-0.28,0.27-0.26,0.47c0.02,0.2,0.15,0.36,0.33,0.42l0.02,0.01l36.46,11.85l-26.2,5.66c0,0,0,0-0.01,0
    c-0.03,0.01-0.05,0.01-0.08,0.03c0,0-0.01,0-0.01,0.01c-0.02,0.01-0.03,0.02-0.05,0.03c0,0-0.01,0.01-0.01,0.01
    c-0.01,0.01-0.02,0.01-0.02,0.02c-0.01,0.01-0.03,0.02-0.04,0.04c-0.01,0.01-0.01,0.01-0.02,0.02c-0.01,0.01-0.03,0.03-0.04,0.05
    c0,0.01-0.01,0.01-0.01,0.02c-0.02,0.02-0.03,0.05-0.04,0.07c0,0.01,0,0.01-0.01,0.02c-0.01,0.02-0.01,0.04-0.02,0.06
    c0,0.01,0,0.02-0.01,0.03c0,0.02-0.01,0.04-0.01,0.06c0,0.01,0,0.02,0,0.03c0,0.03,0,0.06,0.01,0.09l4.15,26.23
    c0.03,0.19,0.17,0.35,0.37,0.4c0.19,0.05,0.39-0.03,0.51-0.19l0.01-0.02L38.5,42.84L35.79,69.5c0,0,0,0,0,0.01
    c0,0.03,0,0.06,0,0.09c0,0,0,0.01,0,0.01c0,0.02,0,0.04,0.01,0.06c0,0,0,0.01,0,0.01c0,0.01,0.01,0.02,0.01,0.03
    c0.01,0.02,0.01,0.03,0.02,0.05c0,0.01,0.01,0.02,0.01,0.03c0.01,0.02,0.02,0.04,0.03,0.05c0,0.01,0.01,0.01,0.01,0.02
    c0.02,0.02,0.04,0.04,0.06,0.06c0,0,0.01,0.01,0.01,0.01c0.02,0.01,0.03,0.03,0.05,0.04c0.01,0.01,0.02,0.01,0.02,0.01
    c0.02,0.01,0.03,0.02,0.05,0.02c0.01,0,0.02,0.01,0.03,0.01c0.03,0.01,0.05,0.02,0.08,0.02l26.23,4.16
    c0.19,0.03,0.39-0.06,0.49-0.23c0.1-0.17,0.09-0.38-0.02-0.54l-0.01-0.02L40.34,42.39l24.52,10.82c0,0,0,0,0.01,0
    c0.03,0.01,0.05,0.02,0.08,0.03c0,0,0.01,0,0.01,0c0.02,0,0.04,0.01,0.06,0.01c0,0,0.01,0,0.01,0c0.01,0,0.02,0,0.03,0
    c0.02,0,0.04,0,0.06,0c0.01,0,0.02,0,0.03,0c0.02,0,0.04-0.01,0.06-0.02c0.01,0,0.01,0,0.02-0.01c0.03-0.01,0.05-0.02,0.07-0.03
    c0.01,0,0.01-0.01,0.02-0.01c0.02-0.01,0.04-0.02,0.05-0.04c0.01-0.01,0.01-0.01,0.02-0.02c0.01-0.01,0.03-0.03,0.04-0.04
    c0.01-0.01,0.01-0.01,0.02-0.02c0.02-0.02,0.03-0.05,0.05-0.07l12.06-23.66C77.64,29.15,77.61,28.94,77.49,28.79z M46.01,32.75
    L40,20.69h16.9L46.01,32.75z M56.36,19.26l0.46,0.46H39.7c0-2.45,0-13.48,0-17.12L56.36,19.26z M39.7,22.26l5.65,11.35l-5.65,6.31
    V22.26z M2.44,28.81l21-10.7l0.58-0.29L18.72,34.1C16.4,33.34,5.9,29.94,2.44,28.81z M24.96,18.05l8.11,14.09l-13.33,1.98
    L24.96,18.05z M33.68,33.02l4.26,7.32l-16.8-5.46L33.68,33.02z M15.86,72.35l-3.68-23.28l-0.1-0.64L25.92,58.5
    C24.48,60.48,18,69.41,15.86,72.35z M12.58,47.61l15.91-3.36l-2.23,13.29L12.58,47.61z M27.42,56.44l2.1-12.5l8.28-1.79
    L27.42,56.44z M61.42,73.05l-23.28-3.69l-0.64-0.1l13.85-10.06C52.79,61.17,59.27,70.1,61.42,73.05z M36.87,68.52l1.72-16.17
    l11.95,6.23L36.87,68.52z M38.62,51.27l0.86-8.43l10.38,14.29L38.62,51.27z M40.65,41.47l16.8-5.46l-9.05,8.88L40.65,41.47z
     M49.42,45.25l9.62-9.44l5.22,16.07L49.42,45.25z M65.45,50.93l-0.29,0.58l-5.29-16.28c2.33-0.76,12.82-4.17,16.29-5.29
    L65.45,50.93z"/>
</g>
</svg>
